<svg width="98" height="93" viewBox="0 0 98 93" fill="none" xmlns="http://www.w3.org/2000/svg">
<g clip-path="url(#clip0_332_2)">
<path d="M46.5 92C71.629 92 92 71.629 92 46.5C92 21.371 71.629 1 46.5 1C21.371 1 1 21.371 1 46.5C1 71.629 21.371 92 46.5 92Z" fill="white" stroke="black" stroke-width="2"/>
<path d="M61 48C62.6569 48 64 44.4183 64 40C64 35.5817 62.6569 32 61 32C59.3431 32 58 35.5817 58 40C58 44.4183 59.3431 48 61 48Z" fill="black"/>
<path d="M61 48C62.6569 48 64 44.4183 64 40C64 35.5817 62.6569 32 61 32C59.3431 32 58 35.5817 58 40C58 44.4183 59.3431 48 61 48Z" fill="black"/>
<path d="M61 48C62.6569 48 64 44.4183 64 40C64 35.5817 62.6569 32 61 32C59.3431 32 58 35.5817 58 40C58 44.4183 59.3431 48 61 48Z" fill="black"/>
<path d="M78 48C79.6569 48 81 44.4183 81 40C81 35.5817 79.6569 32 78 32C76.3431 32 75 35.5817 75 40C75 44.4183 76.3431 48 78 48Z" fill="black"/>
<path d="M78 48C79.6569 48 81 44.4183 81 40C81 35.5817 79.6569 32 78 32C76.3431 32 75 35.5817 75 40C75 44.4183 76.3431 48 78 48Z" fill="black"/>
<path d="M78 48C79.6569 48 81 44.4183 81 40C81 35.5817 79.6569 32 78 32C76.3431 32 75 35.5817 75 40C75 44.4183 76.3431 48 78 48Z" fill="black"/>
<g filter="url(#filter0_d_332_2)">
<path d="M46 67C62 76 81.5 74.5 96 62.5" stroke="black" stroke-width="3" stroke-linecap="round" shape-rendering="crispEdges"/>
</g>
</g>
<defs>
<filter id="filter0_d_332_2" x="40.4997" y="61" width="61.0003" height="21.2856" filterUnits="userSpaceOnUse" color-interpolation-filters="sRGB">
<feFlood flood-opacity="0" result="BackgroundImageFix"/>
<feColorMatrix in="SourceAlpha" type="matrix" values="0 0 0 0 0 0 0 0 0 0 0 0 0 0 0 0 0 0 127 0" result="hardAlpha"/>
<feOffset dy="4"/>
<feGaussianBlur stdDeviation="2"/>
<feComposite in2="hardAlpha" operator="out"/>
<feColorMatrix type="matrix" values="0 0 0 0 0 0 0 0 0 0 0 0 0 0 0 0 0 0 0.25 0"/>
<feBlend mode="normal" in2="BackgroundImageFix" result="effect1_dropShadow_332_2"/>
<feBlend mode="normal" in="SourceGraphic" in2="effect1_dropShadow_332_2" result="shape"/>
</filter>
<clipPath id="clip0_332_2">
<rect width="98" height="93" fill="white"/>
</clipPath>
</defs>
</svg>
